<svg width="42" height="48" viewBox="0 0 42 48" fill="none" xmlns="http://www.w3.org/2000/svg">
    <path fill-rule="evenodd" clip-rule="evenodd"
          d="M40.094 7.77243L21.719 0.143332C21.2587 -0.0477305 20.7413 -0.0478242 20.281 0.143332L1.90603 7.77243C1.20619 8.06305 0.75 8.7463 0.75 9.50408V18.7783C0.75 31.5483 8.46834 43.0352 20.2914 47.861C20.7456 48.0463 21.2543 48.0463 21.7086 47.861C33.5315 43.0353 41.25 31.5484 41.25 18.7783V9.50408C41.25 8.7463 40.7939 8.06305 40.094 7.77243ZM18.5939 25.5971L27.9506 15.7801C28.8006 14.8882 30.1789 14.8881 31.0291 15.7801C31.8793 16.6721 31.8792 18.1182 31.029 19.0101L20.1332 30.4421C19.2829 31.3343 17.9046 31.3339 17.0547 30.4421L10.971 24.059C10.1208 23.167 10.1208 21.7209 10.971 20.829C11.8211 19.9371 13.1994 19.937 14.0495 20.829L18.5939 25.5971Z"
          fill="#232ED1"/>
</svg>